# xmcd CD database file
#
# Track frame offsets:
#	150
#	11073
#	24413
#	38782
#	53988
#	67101
#	82429
#	95720
#	108959
#	122707
#	137158
#	150231
#	161342
#	172161
#	186082
#	198071
#	211218
#	224793
#	239467
#	254242
#	265773
#	280248
#	294573
#	306659
#	319709
#	332019
#	343494
#
# Disc length: 4754 seconds
#
# Revision: 0
# Processed by: cddbd v1.5.2PL0 Copyright (c) Steve Scherf et al.
# Submitted via: CDex 1.70beta2
#
DISCID=ad12901b
DTITLE=Nat King Cole - The Unforgettable Nat King Cole CD1
DYEAR=2008
DGENRE=Jazz
TTITLE0=Straighten Up and Fly Right
TTITLE1=Gee, Baby, Aint I Good To You
TTITLE2=Sweet Lorraine
TTITLE3=Embracable You
TTITLE4=Its Only A Paper Moon
TTITLE5=Dont Blame Me
TTITLE6=Im Thru With Love
TTITLE7=It Only Happens Once
TTITLE8=Get Your Kicks On Route 66!
TTITLE9=The Christmas Song
TTITLE10=For Sentimental Reasons
TTITLE11=Youre The Cream In My Coffee
TTITLE12=When I Take My Sugar To Tea
TTITLE13=Whatll I Do
TTITLE14=Nature Boy
TTITLE15=No Moon At All
TTITLE16=For All We Know
TTITLE17=Lush Life
TTITLE18=Mona Lisa
TTITLE19=Orange Coloured Sky
TTITLE20=Too Young
TTITLE21=Unforgettable
TTITLE22=Walkin My Baby Back Home
TTITLE23=Somewhere Along The Way
TTITLE24=Pretend
TTITLE25=Lover, Come Back To Me
TTITLE26=Tenderly
EXTD=YEAR: 2008
EXTT0=
EXTT1=
EXTT2=
EXTT3=
EXTT4=
EXTT5=
EXTT6=
EXTT7=
EXTT8=
EXTT9=
EXTT10=
EXTT11=
EXTT12=
EXTT13=
EXTT14=
EXTT15=
EXTT16=
EXTT17=
EXTT18=
EXTT19=
EXTT20=
EXTT21=
EXTT22=
EXTT23=
EXTT24=
EXTT25=
EXTT26=
PLAYORDER=
